<svg xmlns="http://www.w3.org/2000/svg" viewBox="0 0 137.91 58.31"><defs><style>.cls-1{fill:#1d1d1b;}</style></defs><g id="Camada_2" data-name="Camada 2"><g id="Camada_1-2" data-name="Camada 1"><path class="cls-1" d="M11.77,40.16H9.89c-.3,0-.51-.07-.51-.38V34.42l0,0-.88,2.26L7.38,39.38c-.15.29-.27.44-.59.44H5.67c-.34,0-.53,0-.71-.36l-1-2.76-.86-2.24,0,0v5.3c0,.31-.19.38-.53.38H.59c-.32,0-.53-.15-.53-.47V27.59c0-.28.17-.47.53-.47H2.38c.3,0,.59,0,.8.45.55,1.3,1.18,2.93,1.73,4.21l1.27,3.27h.1l1.31-3.27,1.75-4.21a.81.81,0,0,1,.8-.45h1.63c.33,0,.54.17.54.47v12.1c0,.32-.21.47-.54.47"/><path class="cls-1" d="M22.8,37.46c.25,0,.42.14.42.48v1.71c0,.32-.13.5-.42.5H15.37a.46.46,0,0,1-.5-.5v-12a.47.47,0,0,1,.5-.51h7.26c.25,0,.42.13.42.47V29.3c0,.31-.13.5-.42.5H17.86v2.36h4c.34,0,.44.19.44.51v1.67c0,.31-.1.5-.44.5h-4v2.62Z"/><path class="cls-1" d="M33,29.8H30.32l0,9.93c0,.32-.19.42-.53.42h-2c-.29,0-.5-.1-.5-.42l0-9.93H24.88c-.33,0-.44-.19-.44-.5V27.63c0-.32.11-.51.44-.51H33c.3,0,.4.17.4.51V29.3c0,.31-.06.5-.4.5"/><path class="cls-1" d="M40.21,27.12c2.43,0,4.14,1.35,4.14,3.93a5.54,5.54,0,0,1-1.73,3.71c-.15.19-.13.25,0,.5l2,4.41c.11.23,0,.48-.36.48h-2.1c-.68,0-.81-.25-.93-.52l-1.8-4.14h-1.3v4.24c0,.32-.19.42-.53.42h-2c-.34,0-.53-.1-.53-.42V27.63c0-.32.11-.51.45-.51ZM40,32.82a1.25,1.25,0,0,0,1-.64,2.13,2.13,0,0,0,.36-1.07,1.19,1.19,0,0,0-1.28-1.31h-1.9v3Z"/><path class="cls-1" d="M51.14,40.49c-2.62,0-4.64-1.56-4.64-4.07V31.24c0-2.51,1.94-4.12,4.62-4.12s4.66,1.61,4.66,4.12v5.18c0,2.51-2,4.07-4.64,4.07m1.6-9.25a1.39,1.39,0,0,0-1.6-1.44,1.49,1.49,0,0,0-1.65,1.44v5.18a1.46,1.46,0,0,0,1.63,1.37,1.48,1.48,0,0,0,1.62-1.37Z"/><path class="cls-1" d="M63.09,34.88H61.34v4.83c0,.32-.19.44-.52.44h-2c-.34,0-.53-.12-.53-.44V27.57c0-.32.19-.45.53-.45h4.23a3.85,3.85,0,0,1,4.18,4c0,2.21-1.71,3.77-4.18,3.77m0-5.08H61.34v2.41h1.75a1.21,1.21,0,0,0,0-2.41"/><path class="cls-1" d="M73.77,40.49c-2.62,0-4.64-1.56-4.64-4.07V31.24c0-2.51,1.94-4.12,4.61-4.12s4.66,1.61,4.66,4.12v5.18c0,2.51-2,4.07-4.63,4.07m1.6-9.25a1.39,1.39,0,0,0-1.6-1.44,1.49,1.49,0,0,0-1.65,1.44v5.18a1.45,1.45,0,0,0,1.62,1.37,1.48,1.48,0,0,0,1.63-1.37Z"/><path class="cls-1" d="M89,37.46c.25,0,.4.1.4.44v1.75c0,.32-.1.5-.4.5H81.57a.46.46,0,0,1-.51-.5V27.52c0-.31.19-.4.51-.4h2c.3,0,.51.07.51.4v9.94Z"/><path class="cls-1" d="M91.59,40.15c-.32,0-.51-.1-.51-.42V27.57c0-.32.19-.45.51-.45h2c.27,0,.5.11.5.45V39.73c0,.32-.19.42-.5.42Z"/><path class="cls-1" d="M104.43,29.8h-2.66l0,9.93c0,.32-.19.42-.53.42h-2c-.3,0-.51-.1-.51-.42l0-9.93H96.33c-.34,0-.44-.19-.44-.5V27.63c0-.32.1-.51.44-.51h8.1c.29,0,.4.17.4.51V29.3c0,.31-.07.5-.4.5"/><path class="cls-1" d="M114.87,39.63c0,.17.08.52-.34.52h-2.34c-.26,0-.36-.12-.42-.37l-.41-2h-3.22l-.4,2c-.07.27-.21.37-.4.37H105c-.45,0-.38-.29-.32-.52l3-12.15a.5.5,0,0,1,.52-.36h3c.21,0,.44,0,.53.36Zm-4.64-6.69-.49-2.38h-.06l-.44,2.38-.45,2.36h1.94Z"/><path class="cls-1" d="M125.43,40.15H124.1c-.34,0-.57,0-.78-.35l-3.88-6.27-.06,0v6.17c0,.32-.21.4-.55.4H117c-.34,0-.53-.08-.53-.4V27.59c0-.32.19-.47.53-.47h1.37a.74.74,0,0,1,.8.45L123,34l0,0V27.57c0-.32.19-.45.53-.45h1.83c.3,0,.53.11.53.45V39.69c0,.32-.19.46-.53.46"/><path class="cls-1" d="M133.21,40.49c-2.61,0-4.64-1.56-4.64-4.07V31.24c0-2.51,1.94-4.12,4.62-4.12s4.66,1.61,4.66,4.12v5.18c0,2.51-2,4.07-4.64,4.07m1.6-9.25a1.39,1.39,0,0,0-1.6-1.44,1.48,1.48,0,0,0-1.64,1.44v5.18a1.45,1.45,0,0,0,1.62,1.37,1.48,1.48,0,0,0,1.62-1.37Z"/><path class="cls-1" d="M11.54.69c0-.54.33-.69.91-.69h3.36c.58,0,.91.15.91.69v21.1c0,.55-.33.73-.91.73H12.45c-.58,0-.91-.18-.91-.73V13.27H5.27v8.52c0,.55-.32.73-.91.73H1c-.58,0-.91-.18-.91-.73V.69C.06.15.39,0,1,0H4.36c.51,0,.91.11.91.69v8h6.27Z"/><path class="cls-1" d="M29.22,23.11c-4.52,0-8-2.7-8-7v-9c0-4.34,3.35-7.11,8-7.11s8.06,2.77,8.06,7.11v9c0,4.34-3.43,7-8,7M32,7.11c0-1.28-.73-2.48-2.77-2.48a2.57,2.57,0,0,0-2.85,2.48v9a2.52,2.52,0,0,0,2.81,2.37A2.56,2.56,0,0,0,32,16.07Z"/><path class="cls-1" d="M49.26,23a12.12,12.12,0,0,1-7.94-2.7c-.66-.55-.81-.87-.22-1.64l1.42-2c.62-.76,1-.51,1.53-.14a10.49,10.49,0,0,0,5,1.86c2.48,0,2.81-1.13,2.81-1.94,0-1.6-2-2.44-5.33-3.57C43.83,12,41.5,10.28,41.5,6.71,41.5,2.59,44.92,0,49,0a12,12,0,0,1,6.48,1.6c.59.37.73.55.26,1.46L54.69,5.18a.89.89,0,0,1-1.27.47,12.64,12.64,0,0,0-4.27-1.13c-1.24,0-2.51.47-2.51,2S48.86,8.75,50,9.11c3,1,7.22,2.37,7.22,7S53.53,23,49.26,23"/><path class="cls-1" d="M68.9,13.41h-3v8.35c0,.55-.33.76-.91.76H61.58c-.59,0-.91-.21-.91-.76V.77c0-.55.32-.77.91-.77H68.9c4.38,0,7.22,2.73,7.22,6.89,0,3.83-3,6.52-7.22,6.52m0-8.78h-3V8.78h3a2,2,0,0,0,2-2,2,2,0,0,0-2-2.11"/><path class="cls-1" d="M80.38,22.52c-.55,0-.87-.18-.87-.73V.77c0-.55.32-.77.87-.77h3.43c.47,0,.87.18.87.77v21c0,.55-.33.73-.87.73Z"/><path class="cls-1" d="M102.58,4.63H98l-.07,17.16c0,.55-.33.73-.91.73H93.61c-.51,0-.87-.18-.87-.73l0-17.16H88.58c-.58,0-.76-.33-.76-.88V.87c0-.54.18-.87.76-.87h14c.51,0,.69.29.69.87V3.75c0,.55-.11.88-.69.88"/><path class="cls-1" d="M120,21.61c.07.29.14.91-.59.91h-4c-.44,0-.62-.22-.73-.65l-.69-3.43h-5.58l-.69,3.43c-.11.47-.37.65-.69.65h-4c-.77,0-.66-.51-.55-.91l5.25-21a.87.87,0,0,1,.91-.62h5.18c.36,0,.76,0,.91.62Zm-8-11.55-.84-4.12H111l-.76,4.12-.77,4.08h3.35Z"/><path class="cls-1" d="M136.52,17.86c.44,0,.69.18.69.76v3c0,.55-.18.87-.69.87H123.66a.8.8,0,0,1-.88-.87V.69c0-.54.33-.69.88-.69h3.42c.51,0,.88.11.88.69V17.86Z"/><path class="cls-1" d="M13.75,58.21H11.64c-.08,0-.14,0-.14-.11V51.83c0-.07.05-.12.14-.12h2.11c1.4,0,2.17.7,2.17,1.9v2.64c0,1.3-.8,2-2.17,2m1.19-4.69c0-.73-.52-1.05-1.25-1.05h-1.2v5h1.28c.78,0,1.17-.41,1.17-1.06Z"/><path class="cls-1" d="M21.1,55.35a.06.06,0,0,0,0,.07s.06.13,1.34,2.56c.09.18,0,.23-.13.23h-.61c-.25,0-.31-.07-.38-.21L20,55.54H18.77l0,2.55q0,.12-.15.12h-.7c-.08,0-.14,0-.14-.11V51.83c0-.07,0-.12.14-.12H20c1.47,0,2.18.72,2.18,1.83a2.51,2.51,0,0,1-1.09,1.81m-2.33-2.88v2.32H20.3a.48.48,0,0,0,.19,0,1.49,1.49,0,0,0,.7-1.11c0-.55-.25-1.16-1.31-1.16Z"/><path class="cls-1" d="M25.33,57.74a.64.64,0,0,1-1.27,0,.64.64,0,0,1,1.27,0"/><path class="cls-1" d="M36.5,52.64l-.45.34a.19.19,0,0,1-.24,0,1.77,1.77,0,0,0-1.26-.54,1,1,0,0,0-1.17,1v3.07c0,.59.47,1,1.23,1a1.87,1.87,0,0,0,1.2-.51c.08-.08.15-.16.27-.07l.47.35a.12.12,0,0,1,0,.17,2.59,2.59,0,0,1-2,.83c-1.26,0-2.22-.63-2.22-1.78V53.42c0-1.11.9-1.79,2.15-1.79a2.56,2.56,0,0,1,2,.78c.07.08.08.14,0,.23"/><path class="cls-1" d="M43.11,58.21H39.27c-.08,0-.14,0-.14-.11V51.83c0-.07,0-.12.14-.12h3.79a.14.14,0,0,1,.15.12v.52c0,.07-.05.12-.14.12h-3v2h2.44c.1,0,.15.05.15.13v.53c0,.07-.05.11-.13.11H40.12v2.24h3c.08,0,.14,0,.14.11v.53c0,.08,0,.12-.14.12m-2.28-6.8a.22.22,0,0,1-.24,0l-.16-.19a.12.12,0,0,1,0-.19l1.36-1c.07-.05.19-.09.26,0l.36.46c.09.12,0,.18-.06.21Z"/><path class="cls-1" d="M49.91,58.21H46.17c-.1,0-.14,0-.14-.11V51.83c0-.07,0-.12.13-.12h.71c.1,0,.13,0,.13.11v5.63h2.9c.08,0,.14,0,.14.11v.53c0,.08,0,.12-.13.12"/><path class="cls-1" d="M53.68,58.21H53c-.09,0-.14,0-.14-.11V51.83c0-.07,0-.12.14-.12h.73a.13.13,0,0,1,.14.11v6.27c0,.08,0,.12-.14.12"/><path class="cls-1" d="M59.33,58.28c-1.27,0-2.25-.62-2.25-1.8V53.42c0-1.12,1-1.79,2.24-1.79s2.24.63,2.24,1.79v3.06c0,1.13-1,1.8-2.23,1.8m1.24-4.84a1.1,1.1,0,0,0-1.24-1c-.77,0-1.26.45-1.26,1v3c0,.62.46,1,1.25,1s1.25-.42,1.25-1Z"/><path class="cls-1" d="M71,58.21H68.87c-.08,0-.14,0-.14-.11V51.83c0-.07,0-.12.14-.12H71c1.4,0,2.18.7,2.18,1.9v2.64c0,1.3-.8,2-2.18,2m1.19-4.69c0-.73-.52-1.05-1.25-1.05h-1.2v5H71c.78,0,1.17-.41,1.17-1.06Z"/><path class="cls-1" d="M80.14,58.21H76.3c-.08,0-.14,0-.14-.11V51.83c0-.07,0-.12.14-.12h3.79a.14.14,0,0,1,.15.12v.52c0,.07,0,.12-.14.12H77.15v2H79.6a.12.12,0,0,1,.14.13v.53c0,.07,0,.11-.13.11H77.15v2.24h3c.08,0,.14,0,.14.11v.53c0,.08,0,.12-.14.12"/><path class="cls-1" d="M91.19,52.64l-.44.34a.2.2,0,0,1-.25,0,1.75,1.75,0,0,0-1.26-.54,1,1,0,0,0-1.17,1v3.07c0,.59.47,1,1.23,1A1.87,1.87,0,0,0,90.5,57c.08-.08.15-.16.27-.07l.47.35a.12.12,0,0,1,0,.17,2.59,2.59,0,0,1-2,.83c-1.26,0-2.21-.63-2.21-1.78V53.42c0-1.11.89-1.79,2.14-1.79a2.56,2.56,0,0,1,2,.78c.07.08.08.14,0,.23"/><path class="cls-1" d="M97.42,58.21c-.09,0-.15,0-.16-.07l-.4-1.41H94.68l-.39,1.41s-.07.07-.15.07H93.5c-.13,0-.19,0-.15-.15l1.74-6.22c0-.06.06-.13.19-.13h1c.1,0,.15,0,.17.11L98.24,58c0,.07,0,.17-.1.17Zm-2-4.23-.54,2h1.79l-.54-2-.35-1.36h0Z"/><path class="cls-1" d="M104.09,56.42c0-.7-.71-.93-1.35-1.13-.92-.29-2.13-.68-2.13-1.87a1.89,1.89,0,0,1,2.13-1.79,3.51,3.51,0,0,1,2,.53c.14.09,0,.18,0,.23l-.28.4c-.07.09-.2.06-.29,0a2.85,2.85,0,0,0-1.32-.39c-.69,0-1.26.25-1.26,1,0,.57.73.82,1.39,1,1,.36,2.09.68,2.09,1.93s-1,1.86-2.48,1.86a2.83,2.83,0,0,1-2.16-.81c-.07-.08-.07-.13,0-.21l.44-.36c.09-.07.15,0,.26.07a2,2,0,0,0,1.4.54c.89,0,1.51-.37,1.51-1.08"/><path class="cls-1" d="M111.71,52.47h-1.66v5.62c0,.08,0,.12-.13.12h-.72c-.09,0-.14,0-.14-.11V52.47h-1.62c-.1,0-.14,0-.14-.11v-.53c0-.07,0-.12.14-.12h4.27c.09,0,.14,0,.14.11v.54c0,.07,0,.11-.14.11"/><path class="cls-1" d="M117.74,55.35s0,0,0,.07.06.13,1.34,2.56c.1.18,0,.23-.13.23h-.61c-.24,0-.3-.07-.37-.21l-1.26-2.46h-1.26v2.55c0,.08,0,.12-.14.12h-.71c-.08,0-.14,0-.14-.11V51.83c0-.07,0-.12.14-.12h2.07c1.47,0,2.18.72,2.18,1.83a2.5,2.5,0,0,1-1.08,1.81m-2.33-2.88v2.32h1.53a.53.53,0,0,0,.19,0,1.51,1.51,0,0,0,.69-1.11c0-.55-.25-1.16-1.31-1.16Z"/><path class="cls-1" d="M123.94,58.28c-1.27,0-2.25-.62-2.25-1.8V53.42c0-1.12,1-1.79,2.24-1.79s2.25.63,2.25,1.79v3.06c0,1.13-1,1.8-2.24,1.8m1.25-4.84a1.28,1.28,0,0,0-2.51,0v3c0,.62.46,1,1.25,1s1.26-.42,1.26-1Z"/><path class="cls-1" d="M0,46.25v-.73c0-.09,0-.14.12-.14H137.79c.08,0,.12,0,.12.14v.73c0,.08,0,.14-.11.14H.13c-.09,0-.13,0-.13-.14"/></g></g></svg>